<?xml version="1.0" encoding="UTF-8"?>
<!DOCTYPE svg PUBLIC "-//W3C//DTD SVG 1.1//EN" "http://www.w3.org/Graphics/SVG/1.1/DTD/svg11.dtd">
<!-- Creator: CorelDRAW X8 -->
<svg xmlns="http://www.w3.org/2000/svg" xml:space="preserve" width="1200px" height="1200px" version="1.1" style="shape-rendering:geometricPrecision; text-rendering:geometricPrecision; image-rendering:optimizeQuality; fill-rule:evenodd; clip-rule:evenodd"
viewBox="0 0 1200 1200"
 xmlns:xlink="http://www.w3.org/1999/xlink">
 <defs>
  <style type="text/css">
   <![CDATA[
    .fil0 {fill:black}
   ]]>
  </style>
 </defs>
 <g id="Camada_x0020_1">
  <metadata id="CorelCorpID_0Corel-Layer"/>
  <path id="facebook-square.svg" class="fil0" d="M1012 75l-825 0c-62,0 -112,50 -112,113l0 825c0,62 50,112 113,112l321 0 0 -357 -147 0 0 -168 147 0 0 -128c0,-146 87,-226 220,-226 63,0 130,11 130,11l0 143 -73 0c-73,0 -95,45 -95,91l0 109 161 0 -26 168 -135 0 0 357 321 0c63,0 113,-50 113,-113l0 -824c0,-63 -50,-113 -113,-113l0 0z"/>
 </g>
</svg>
