<?xml version="1.0" encoding="UTF-8"?>
<!DOCTYPE svg PUBLIC "-//W3C//DTD SVG 1.1//EN" "http://www.w3.org/Graphics/SVG/1.1/DTD/svg11.dtd">
<!-- Creator: CorelDRAW X8 -->
<svg xmlns="http://www.w3.org/2000/svg" xml:space="preserve" width="1200px" height="1200px" version="1.1" style="shape-rendering:geometricPrecision; text-rendering:geometricPrecision; image-rendering:optimizeQuality; fill-rule:evenodd; clip-rule:evenodd"
viewBox="0 0 1200 1200"
 xmlns:xlink="http://www.w3.org/1999/xlink">
 <defs>
  <style type="text/css">
   <![CDATA[
    .fil0 {fill:black}
   ]]>
  </style>
 </defs>
 <g id="Camada_x0020_1">
  <metadata id="CorelCorpID_0Corel-Layer"/>
  <path class="fil0" d="M249 74l702 0c96,0 175,79 175,175l0 702c0,96 -79,175 -175,175l-702 0c-96,0 -175,-79 -175,-175l0 -702c0,-96 79,-175 175,-175zm506 949c-135,0 -244,-13 -244,-28 0,-15 109,-28 244,-28 135,0 244,13 244,28 0,15 -109,28 -244,28zm-190 -393c0,0 11,-171 179,-174 0,0 169,-4 200,187 0,0 32,231 -178,245 0,0 -93,15 -179,-26l15 -70c0,0 232,82 242,-88l-267 0c0,0 4,33 -1,53l-279 1c0,0 0,161 242,88l16 73c1,3 -208,85 -320,-50 -72,-88 -43,-360 161,-359 0,0 0,0 0,0 130,2 169,120 169,120zm97 1l182 -2c0,0 -7,-92 -90,-101 -63,2 -86,41 -91,96l-1 7zm-183 54l-182 -1c0,0 7,-92 90,-101 63,1 86,40 92,96l0 6zm367 -254l141 -114 14 94 -155 20zm-64 -36l0 -218 125 43 -125 175zm-101 -2l-88 -131 78 -51 10 182zm-57 32l-108 -8 0 -56 108 64z"/>
 </g>
</svg>
